<?xml version="1.0" encoding="UTF-8" standalone="no"?>
<!-- Created with Inkscape (http://www.inkscape.org/) -->

<svg
   xmlns:dc="http://purl.org/dc/elements/1.1/"
   xmlns:cc="http://creativecommons.org/ns#"
   xmlns:rdf="http://www.w3.org/1999/02/22-rdf-syntax-ns#"
   xmlns:svg="http://www.w3.org/2000/svg"
   xmlns="http://www.w3.org/2000/svg"
   xmlns:sodipodi="http://sodipodi.sourceforge.net/DTD/sodipodi-0.dtd"
   xmlns:inkscape="http://www.inkscape.org/namespaces/inkscape"
   width="210mm"
   height="297mm"
   id="svg2"
   version="1.1"
   inkscape:version="0.48.3.1 r9886"
   sodipodi:docname="Neues Dokument 1">
  <defs
     id="defs4" />
  <sodipodi:namedview
     id="base"
     pagecolor="#ffffff"
     bordercolor="#666666"
     borderopacity="1.0"
     inkscape:pageopacity="0.0"
     inkscape:pageshadow="2"
     inkscape:zoom="0.49497475"
     inkscape:cx="-443.11186"
     inkscape:cy="663.02494"
     inkscape:document-units="px"
     inkscape:current-layer="flowRoot2993"
     showgrid="false"
     inkscape:window-width="1316"
     inkscape:window-height="890"
     inkscape:window-x="340"
     inkscape:window-y="87"
     inkscape:window-maximized="0" />
  <metadata
     id="metadata7">
    <rdf:RDF>
      <cc:Work
         rdf:about="">
        <dc:format>image/svg+xml</dc:format>
        <dc:type
           rdf:resource="http://purl.org/dc/dcmitype/StillImage" />
        <dc:title></dc:title>
      </cc:Work>
    </rdf:RDF>
  </metadata>
  <g
     inkscape:label="Ebene 1"
     inkscape:groupmode="layer"
     id="layer1">
    <flowRoot
       xml:space="preserve"
       id="flowRoot2985"
       style="fill:black;stroke:none;stroke-opacity:1;stroke-width:1px;stroke-linejoin:miter;stroke-linecap:butt;fill-opacity:1;font-family:SF Distant Galaxy AltOutline;font-style:normal;font-weight:normal;font-size:40px;line-height:125%;letter-spacing:0px;word-spacing:0px;-inkscape-font-specification:SF Distant Galaxy AltOutline;font-stretch:normal;font-variant:normal;text-anchor:start;text-align:start;writing-mode:lr"><flowRegion
         id="flowRegion2987"><rect
           id="rect2989"
           width="620"
           height="337.14285"
           x="125.71429"
           y="169.50504" /></flowRegion><flowPara
         id="flowPara2991"></flowPara></flowRoot>    <g
       transform="matrix(1.5969911,0,0,3.2583453,-20.768759,-392.23121)"
       style="font-size:40px;font-style:normal;font-variant:normal;font-weight:normal;font-stretch:normal;text-align:start;line-height:125%;letter-spacing:0px;word-spacing:0px;writing-mode:lr-tb;text-anchor:start;fill:#000000;fill-opacity:1;stroke:none;font-family:SF Distant Galaxy AltOutline;-inkscape-font-specification:SF Distant Galaxy AltOutline"
       id="flowRoot2993">
      <path
         d="m 136.26114,228.24771 c -8.4533,0 -15.83201,-3.39843 -22.13615,-10.19533 -6.50473,-7.07012 -9.75709,-15.59182 -9.75709,-25.56515 0,-9.97329 3.25236,-18.47791 9.75709,-25.51396 6.30414,-6.86512 13.55981,-10.87275 22.01313,-10.87283 l 191.67372,0.57504 0.12302,24.14214 -191.67375,-0.57504 c -2.77957,5e-5 -5.24392,1.22964 -7.39303,3.68876 -2.14916,2.4592 -3.22372,5.31117 -3.2237,8.55589 -2e-5,3.27892 1.07454,6.14796 3.2237,8.60711 2.20642,2.42502 4.67077,3.63753 7.39303,3.63753 l 30.20082,0.21562 1.35344,2.46909 -31.55426,-0.0719 c -3.35268,2e-5 -6.34714,-1.46866 -8.9834,-4.40603 -2.57898,-2.90317 -3.86847,-6.38698 -3.86845,-10.45148 -2e-5,-3.96199 1.28947,-7.42873 3.86845,-10.40028 2.60761,-2.97144 5.60206,-4.4572 8.9834,-4.45725 l 189.48161,0.57504 0,-18.34133 -189.48161,-0.57504 c -7.8802,6e-5 -14.75743,3.1765 -20.63175,9.5293 -6.04624,6.48954 -9.06937,14.37939 -9.06937,23.66956 0,9.32438 3.02313,17.2313 9.06937,23.72079 5.87432,6.35285 12.75155,9.52929 20.63175,9.52929 l 51.97882,0.28752 6.64413,2.15102 -58.62295,0.0719"
         id="path3002"
         inkscape:connector-curvature="0"
         sodipodi:nodetypes="ccscccccsscsccccsccccccscsccc" />
      <path
         d="m 226.78297,192.48723 c -6e-5,9.97333 -3.25244,18.49503 -9.75711,25.56515 -6.30418,6.7969 -13.68289,10.19533 -22.13614,10.19533 -8.45332,0 -15.83203,-3.39843 -22.13615,-10.19533 -6.50476,-7.07012 -11.1251,-27.0761 -10.62712,-25.4127 l 2.43604,8.13744 -3.20042,-11.2029 -0.92281,-9.98052 4.87235,-0.8266 -0.63629,1.66949 c -0.72716,1.90785 3.53638,29.28269 9.58264,35.77219 5.8743,6.35285 12.75155,9.52929 20.63176,9.52929 7.85148,0 14.72873,-3.17644 20.63175,-9.52929 6.04619,-6.4895 9.0693,-14.39642 9.06937,-23.72079 l 0,-11.64854 -16.84927,0 0,11.64854 c 0,3.96201 -1.30384,7.42878 -3.91143,10.40025 -2.579,2.97152 -5.55915,4.45728 -8.94042,4.45725 -3.35269,3e-5 -6.34717,-1.46866 -8.98341,-4.40603 -2.579,-2.90316 -3.86847,-6.38698 -3.86845,-10.45147 l 0,-12.29546 -21.41404,-0.14374 -0.73824,-1.71442 24.38738,-0.10781 0,14.26143 c 0,3.27892 1.07454,6.14796 3.2237,8.60711 2.20644,2.42502 4.67079,3.63753 7.39306,3.63753 2.7222,0 5.18654,-1.21251 7.39303,-3.63753 2.14911,-2.45915 3.22368,-5.32819 3.22372,-8.60711 l 0,-14.26143 21.2765,0 0,14.26143"
         id="path3004"
         inkscape:connector-curvature="0"
         sodipodi:nodetypes="ccscsccccscscsccscccsccccscscsccc" />
      <path
         d="m 272.64564,211.14492 0,17.10279 -23.46864,0 0.69602,-26.45481 -24.5002,0 0,-2.61289 26.69234,0 -0.69602,26.5573 19.08436,0 0.69602,-26.5573 20.15895,0 0,-18.34132 -65.93565,0 0,-2.61289 68.12777,0 0,23.5671 -20.15893,0"
         id="path3006"
         inkscape:connector-curvature="0"
         sodipodi:nodetypes="ccccccccccccccccc" />
      <path
         d="m 350.27259,194.22913 -3.65352,0 0,-34.94076 -17.62298,0 0,34.94076 -16.80626,0 4.12736,-13.42297 -18.26769,0 -6.87827,31.81555 37.82486,0 0,13.1156 17.62298,0 0,-13.1156 3.65352,0 0,-18.39258 m -1.46141,21.00545 0,13.01313 -22.0072,0 0,-13.01313 -38.29769,0 7.65197,-37.04128 22.82387,0 -4.12738,13.42297 11.94923,0 0,-34.94079 22.0072,0 0,34.94079 3.65355,0 0,23.61831 -3.65355,0"
         id="path3008"
         inkscape:connector-curvature="0"
         sodipodi:nodetypes="cccccccccccccccccccccccccccccc" />
    </g>
  </g>
</svg>
